<?xml version="1.0" encoding="utf-8"?>
<!-- Generator: Adobe Illustrator 25.2.1, SVG Export Plug-In . SVG Version: 6.00 Build 0)  -->
<svg version="1.1" id="Ebene_1" xmlns="http://www.w3.org/2000/svg" xmlns:xlink="http://www.w3.org/1999/xlink" x="0px" y="0px"
	 viewBox="0 0 213.4 89.4" style="enable-background:new 0 0 213.4 89.4;" xml:space="preserve">
<style type="text/css">
	.st0{fill:#F3722C;enable-background:new    ;}
	.st1{fill:#F3722C;}
	.st2{font-family:'Ayuthaya';}
	.st3{font-size:27.4px;}
	.st4{letter-spacing:1;}
</style>
<path class="st0" d="M3.8,42.3c-0.3,1-0.4,2-0.4,3c0,5.9,4.4,10.9,10.2,11.7c2.1,2.8,4.6,4.6,7,5.1l-2.4,6.5
	c-1.2,3.2,0.5,6.8,3.7,7.9c0.1,0.1,0.3,0.1,0.4,0.1c0.5,0.2,1.1,0.2,1.7,0.2c2.5,0,4.7-1.4,5.7-3.7l1.6-3.5c0.5-1.2,1.3-2.2,2.3-3.1
	c1-0.9,2.1-1.5,3.4-1.8c3.3-0.9,6-3.3,7.3-6.4l2.4-5.3c2.8-0.1,5.5-1.3,7.5-3.4c3.1,2.9,8,2.8,11-0.3c0.1-0.1,0.3-0.3,0.4-0.4
	c3.4,0.8,6.9-0.7,8.6-3.8c0.3,0.1,0.7,0.1,1,0.1c4.3,0,7.8-3.5,7.8-7.8c0-0.9-0.1-1.7-0.4-2.5c1.1-1.5,1.7-3.4,1.7-5.3
	c0-4-2.7-7.5-6.5-8.7c0-0.1,0-0.3,0-0.4c0-3.4-2.2-6.5-5.5-7.5c-1-4-4.7-6.9-8.8-6.9c-1.2,0-2.5,0.2-3.6,0.7c-1.7-3.7-5.4-6-9.4-6
	c-2,0-4,0.6-5.6,1.7c-3.2-2.5-7.8-2.1-10.5,0.9C32.1,1.9,29.6,1,26.9,1c-4.5,0-8.6,2.6-10.5,6.6c-0.4,0-0.8-0.1-1.2-0.1
	C9.4,7.5,4.7,12.2,4.7,18c0,0,0,0,0,0c0,0.6,0.1,1.2,0.2,1.9C1.8,22.5,1.3,27,3.6,30.3c-3.3,2.8-3.7,7.7-0.9,11
	C3,41.7,3.4,42,3.8,42.3z M20.8,69.6l2.7-7.4c1.1-0.2,2.1-0.7,3-1.3c2.8-1.9,3.5-4.8,4-7.4c3,3.1,7.9,3.1,11,0.1
	c0.4-0.4,0.7-0.8,1-1.2c0.5,0.2,1,0.4,1.5,0.5l-2,4.6c-1.1,2.4-3.1,4.2-5.7,4.9c-3.3,0.9-6,3.2-7.4,6.4l-1.6,3.5
	c-0.7,1.6-2.5,2.5-4.3,2c-1.9-0.5-3-2.5-2.5-4.4C20.7,69.7,20.8,69.6,20.8,69.6L20.8,69.6z M3.5,36.2c0-1.9,1-3.6,2.7-4.5
	c0.4-0.2,0.6-0.6,0.7-1c0.1-0.4-0.1-0.8-0.4-1.1c-1.1-1-1.7-2.4-1.7-3.8c0-1.1,0.4-2.3,1.1-3.2c1.8,3.5,5.4,5.8,9.4,5.8
	c0.7-0.1,1.3-0.7,1.2-1.4c-0.1-0.6-0.6-1.1-1.2-1.2c-3.5,0-6.6-2.3-7.5-5.7c0,0,0-0.1,0-0.1c-1.1-4.1,1.3-8.4,5.4-9.6
	c0.7-0.2,1.4-0.3,2.1-0.3c0.6,0,1.1,0.1,1.7,0.2c0.6,0.1,1.3-0.2,1.5-0.8c1.4-3.5,4.7-5.9,8.5-5.9c2.5,0,4.8,1,6.5,2.8
	c0,0,0.1,0.1,0.1,0.1c0.4,0.4,0.7,0.8,1,1.2c0.3,0.5,0.6,1,0.8,1.5c0.2,0.5,0.4,1.1,0.5,1.7c0.1,0.6,0.2,1.2,0.2,1.8
	c0,1.2-0.2,2.4-0.7,3.5c-0.5,1.1-1.1,2.1-2,2.9c-0.8,0.8-1.8,1.5-2.9,2c-0.7,0.3-1,1-0.7,1.7c0.2,0.5,0.7,0.8,1.2,0.8
	c0.2,0,0.3,0,0.5-0.1c2.3-1,4.3-2.7,5.6-4.9c0.9,0.4,1.9,0.6,2.9,0.6c2.4,0,4.7-1.2,6.2-3.1c0.5-0.5,0.6-1.3,0.1-1.9
	c-0.5-0.5-1.3-0.6-1.9-0.1c-0.1,0.1-0.2,0.2-0.2,0.3c-1.4,1.9-3.9,2.6-6.1,1.8c0.4-1.1,0.6-2.3,0.5-3.6c0-0.8-0.1-1.6-0.2-2.3
	c-0.3-1.5-0.9-2.9-1.7-4.1c-0.2-0.3-0.4-0.6-0.7-0.9C38,3.3,41.2,3,43.4,4.9c0.1,0.1,0.3,0.2,0.4,0.4c0.5,0.5,1.2,0.5,1.8,0.1
	c3.4-2.7,8.3-2.2,11,1.2c0.4,0.6,0.8,1.2,1.1,1.8c-2.1,1.7-3.3,4.3-3.3,7c0.1,0.7,0.7,1.3,1.4,1.2c0.6-0.1,1.1-0.6,1.2-1.2
	c0-2.2,1.1-4.2,2.9-5.4l0,0c3-2,7-1.1,9,1.9c0.5,0.8,0.9,1.7,1,2.6c0.1,0.5,0.5,1,1,1.1c2.5,0.5,4.3,2.6,4.3,5.1
	c-2.7,0-5.3,1.2-7.1,3.3c-0.8,1-1.7,1.8-2.7,2.5c-1.2-3.1-3.9-5.8-7.2-5.8c-0.7,0.1-1.3,0.7-1.2,1.4c0.1,0.6,0.6,1.1,1.2,1.2
	c2.2,0,4.1,2.2,4.9,4.5c-1.2,0.5-2.6,0.8-3.9,0.8h-4.8c-1.4,0-2.6-1.2-2.6-2.6c0,0,0,0,0,0c0.1-0.7-0.5-1.4-1.2-1.4
	c-0.7-0.1-1.4,0.5-1.4,1.2c0,0.1,0,0.2,0,0.2c0,2.9,2.4,5.2,5.2,5.2h4.9c2.1,0,4.1-0.5,6-1.4h0.1c1.9-1,3.6-2.3,4.9-4
	c1.2-1.5,3.1-2.4,5-2.4c0.3,0,0.6,0,0.9,0.1h0.1c3.2,0.5,5.5,3.2,5.6,6.4c0,1.6-0.6,3.1-1.6,4.2c-0.3,0.4-0.4,0.9-0.2,1.4
	c0.3,0.7,0.5,1.4,0.5,2.2c0.1,2.8-2.2,5.2-5,5.2c-0.6,0-1.1-0.1-1.6-0.2h-0.2c-2.1-0.7-3.5-2.7-3.5-5c0.1-0.7-0.5-1.4-1.2-1.4
	s-1.4,0.5-1.4,1.2c0,0.1,0,0.2,0,0.2c0,2.9,1.6,5.6,4.2,6.9c-1.4,1.9-3.9,2.7-6.1,1.8c-0.6-0.2-1.2,0-1.6,0.5
	c-1.5,2.4-4.7,3.2-7.1,1.7c-0.4-0.2-0.7-0.5-1.1-0.9l0.2-0.5c0.2-0.5,0.4-0.9,0.5-1.4c0.2-0.5,0.3-1,0.3-1.5c0.1-0.5,0.1-1,0.1-1.5
	c0-1.4-0.3-2.8-0.8-4.1c-0.5-1.2-1.3-2.4-2.2-3.3c-0.9-1-2.1-1.7-3.3-2.2c-0.7-0.3-1.4,0-1.7,0.7s0,1.4,0.7,1.7
	c0.9,0.4,1.7,1,2.4,1.7c0.5,0.5,0.9,1,1.2,1.6c-2.5,0.1-4.8,1.2-6.4,3c-0.5,0.5-0.5,1.4,0.1,1.9c0.3,0.2,0.6,0.4,0.9,0.3
	c0.4,0,0.7-0.1,1-0.4c1.4-1.5,3.4-2.3,5.5-2.2c0.1,0.4,0.1,0.8,0.1,1.3c0,0.4,0,0.8-0.1,1.2c-0.1,0.4-0.2,0.8-0.3,1.1
	c-0.1,0.3-0.2,0.7-0.4,1c-0.1,0.3-0.3,0.6-0.5,0.9V47c-1.4,2.2-3.9,3.6-6.6,3.6H46c-1.2-0.1-2.3-0.4-3.3-1c-0.3-0.2-0.7-0.2-1-0.1
	c-0.3,0.1-0.6,0.4-0.8,0.7c-1.2,2.6-4.3,3.8-6.9,2.6c-1.3-0.6-2.3-1.6-2.7-3l0,0c0,0,0-0.1,0-0.1l0,0v-0.1v0l0,0L31,49.4l0,0l0-0.1
	l0,0l-0.1-0.1l0,0h-0.1l0,0L30.6,49l0,0h-0.1l0,0h-0.1l0,0c-0.3-0.1-0.6-0.1-0.8,0c-0.4,0.2-0.7,0.5-0.8,0.9
	c-0.3,0.9-0.5,1.9-0.7,2.8c-0.5,2.5-1,4.6-3,6c-0.7,0.5-1.6,0.9-2.5,0.9c-2.3,0.1-4.9-1.6-7-4.6l0,0c-1.2-1.8-0.2-5,0.5-5.6
	c0.6-0.5,0.6-1.3,0.2-1.8c-0.5-0.6-1.3-0.6-1.8-0.2l0,0c-1.3,1.1-2.3,4-1.9,6.5c-3.8-1.2-6.3-4.7-6.4-8.7c0-1,0.2-2.1,0.5-3.1
	c0-0.1,0-0.1,0.1-0.2C6.8,41.7,7,41.3,7.2,41c0.2-0.4,0.5-0.8,0.8-1.2c0.3-0.4,0.6-0.7,0.9-1c0.3-0.3,0.7-0.6,1.1-0.9
	c0.1-0.1,0.3-0.2,0.5-0.3c0.6,0.7,0.9,1.6,0.9,2.5c-0.1,0.7,0.5,1.4,1.2,1.4c0.7,0.1,1.4-0.5,1.4-1.2c0-0.1,0-0.2,0-0.2
	c0-1.3-0.4-2.5-1.1-3.6c0.3-0.1,0.6-0.2,0.9-0.2c1.7-0.3,3.4,0,5,0.6c0.5,0.2,1.1,0.5,1.5,0.8c0.5,0.3,0.9,0.7,1.4,1.1
	c0.5,0.5,1.3,0.5,1.9,0c0.5-0.5,0.5-1.3,0-1.8c0,0,0,0,0,0c-0.5-0.5-1.1-1-1.7-1.4l-0.5-0.3c2.6-2.7,5.8-4.4,8.2-4.4
	c0.7,0.1,1.4-0.5,1.4-1.2s-0.5-1.4-1.2-1.4c-0.1,0-0.2,0-0.2,0c-3.4,0-7.5,2.2-10.7,5.8c-0.4-0.1-0.8-0.2-1.2-0.3
	c-2-0.4-4.1-0.3-6,0.3c-0.6,0.2-1.1,0.4-1.7,0.7c-0.5,0.3-1,0.6-1.5,0.9c-0.5,0.3-0.9,0.7-1.4,1.1c-0.4,0.4-0.8,0.9-1.2,1.3
	c-0.4,0.5-0.7,1-1,1.5l0,0C3.9,38.8,3.4,37.5,3.5,36.2z"/>
<text transform="matrix(1 0 0 1 41.67 76.96)" class="st1 st2 st3">b</text>
<text transform="matrix(1 0 0 1 58.4301 76.96)" class="st1 st2 st3">r</text>
<text transform="matrix(1 0 0 1 75.4501 76.96)" class="st1 st2 st3">a</text>
<text transform="matrix(1 0 0 1 92.1801 76.96)" class="st1 st2 st3">i</text>
<text transform="matrix(1 0 0 1 108.1801 76.96)" class="st1 st2 st3 st4">n</text>
<text transform="matrix(1 0 0 1 125.8201 76.96)" class="st1 st2 st3 st4">b</text>
<text transform="matrix(1 0 0 1 143.3101 76.96)" class="st1 st2 st3 st4">o</text>
<text transform="matrix(1 0 0 1 160.8701 76.96)" class="st1 st2 st3">a</text>
<text transform="matrix(1 0 0 1 177.7701 76.96)" class="st1 st2 st3">r</text>
<text transform="matrix(1 0 0 1 194.71 76.96)" class="st1 st2 st3 st4">d</text>
</svg>
